<?xml version="1.0" encoding="iso-8859-1"?>
<!-- Generator: Adobe Illustrator 19.0.0, SVG Export Plug-In . SVG Version: 6.00 Build 0)  -->
<svg version="1.1" id="Capa_1" xmlns="http://www.w3.org/2000/svg" xmlns:xlink="http://www.w3.org/1999/xlink" x="0px" y="0px"
	 viewBox="0 0 512 512" style="enable-background:new 0 0 512 512;" xml:space="preserve">
<path style="fill:#7DD49B;" d="M368.748,75.256h-79.64l31.376-62.751c3.479-6.958,13.409-6.958,16.889,0L368.748,75.256z"/>
<path style="opacity:0.3;enable-background:new    ;" d="M368.748,75.256h-79.64l31.376-62.751c3.479-6.958,13.409-6.958,16.889,0
	L368.748,75.256z"/>
<path style="fill:#7DD49B;" d="M298.874,78.308l-66.908,43.195l-7.674-69.736c-0.851-7.733,7.492-13.119,14.189-9.16L298.874,78.308
	z"/>
<path style="opacity:0.3;enable-background:new    ;" d="M298.874,78.308l-66.908,43.195l-7.674-69.736
	c-0.851-7.733,7.492-13.119,14.189-9.16L298.874,78.308z"/>
<path style="fill:#7DD49B;" d="M236.296,129.862l-7.199,79.313l-59.657-36.919c-6.615-4.094-5.717-13.983,1.527-16.82
	L236.296,129.862z"/>
<path style="opacity:0.3;enable-background:new    ;" d="M236.296,129.862l-7.199,79.313l-59.657-36.919
	c-6.615-4.094-5.717-13.983,1.527-16.82L236.296,129.862z"/>
<path style="fill:#7DD49B;" d="M221.008,217.537l-11.209,72.036l-52.344-37.212c-5.805-4.126-4.407-13.109,2.377-15.276
	L221.008,217.537z"/>
<path style="opacity:0.3;enable-background:new    ;" d="M221.008,217.537l-11.209,72.036l-52.344-37.212
	c-5.805-4.126-4.407-13.109,2.377-15.276L221.008,217.537z"/>
<path style="fill:#7DD49B;" d="M192.047,325.267l-17.998,67.32l-45.953-40.703c-5.096-4.514-2.851-12.908,3.816-14.276
	L192.047,325.267z"/>
<path style="opacity:0.3;enable-background:new    ;" d="M192.047,325.267l-17.998,67.32l-45.953-40.703
	c-5.096-4.514-2.851-12.908,3.816-14.276L192.047,325.267z"/>
<path style="fill:#7DD49B;" d="M172.807,419.097l-47.202,36.356l-10.05-51.515c-1.114-5.713,4.771-10.246,10.01-7.71
	L172.807,419.097z"/>
<path style="opacity:0.3;enable-background:new    ;" d="M172.807,419.097l-47.202,36.356l-10.05-51.515
	c-1.114-5.713,4.771-10.246,10.01-7.71L172.807,419.097z"/>
<path style="fill:#7DD49B;" d="M70.525,392.827l-28.03-45.115l46.59-4.312c5.167-0.478,8.661,5.147,5.944,9.568L70.525,392.827z"/>
<path style="opacity:0.3;enable-background:new    ;" d="M70.525,392.827l-28.03-45.115l46.59-4.312
	c5.167-0.478,8.661,5.147,5.944,9.568L70.525,392.827z"/>
<path style="fill:#7DD49B;" d="M368,325.267c-2.15,0-4.314-0.035-6.507-0.105c-17.133-0.551-30.576-14.885-30.026-32.017
	c0.55-17.133,14.877-30.584,32.017-30.026c48.849,1.579,66.945-22.951,78.227-47.144c7.244-15.536,25.709-22.259,41.248-15.011
	c15.536,7.246,22.256,25.712,15.011,41.248C472.257,297.347,428.545,325.267,368,325.267z"/>
<path style="opacity:0.15;enable-background:new    ;" d="M368,325.267c-2.15,0-4.314-0.035-6.507-0.105
	c-17.133-0.551-30.576-14.885-30.026-32.017c0.55-17.133,14.877-30.584,32.017-30.026c48.849,1.579,66.945-22.951,78.227-47.144
	c7.244-15.536,25.709-22.259,41.248-15.011c15.536,7.246,22.256,25.712,15.011,41.248C472.257,297.347,428.545,325.267,368,325.267z
	"/>
<g>
	<path style="fill:#7DD49B;" d="M396.113,459.134h-10v-11.469c0-28.806-23.352-52.158-52.158-52.158s-52.158,23.352-52.158,52.158
		v17.511c0,21.836,17.701,39.539,39.538,39.539h101.282c5.269,0,9.539-4.271,9.539-9.539
		C432.155,475.269,416.018,459.134,396.113,459.134z"/>
	<path style="fill:#7DD49B;" d="M458.166,118.922c-4.567-1.885-8.147-5.529-10.228-10.01c-12.844-27.659-40.85-46.844-73.352-46.844
		h-73.884c-44.657,0-80.859,36.201-80.859,80.859l0,0c0,0.343,0.002,0.686,0.007,1.028c0.507,40.462-5.649,80.729-18.359,119.145
		l-54.947,166.082c-1.455,4.401-5.569,7.373-10.204,7.373c-24.71,0-47.363-13.758-58.757-35.685l-31.244-60.129
		c-3.2-6.16-9.449-10.312-16.39-10.414c-11.553-0.17-20.413,10.122-18.583,21.485l9.975,61.901c8.45,52.444,53.716,91,106.837,91
		H281.33c49.698,0,89.986-40.288,89.986-89.986V235.632c0-6.542,5.304-11.846,11.846-11.846h54.233
		c30.089,0,54.482-24.392,54.482-54.482l0,0C491.876,146.569,477.951,127.088,458.166,118.922z"/>
</g>
<path style="opacity:0.05;enable-background:new    ;" d="M331.45,62.068h-30.749c-44.657,0-80.859,36.201-80.859,80.859l0,0
	c0,0.343,0.002,0.686,0.007,1.028c0.507,40.462-5.649,80.729-18.359,119.145l-54.947,166.082c-1.455,4.401-5.569,7.373-10.204,7.373
	c-24.71,0-47.363-13.758-58.757-35.685l-31.244-60.129c-3.2-6.16-9.449-10.312-16.39-10.414
	c-11.553-0.17-20.413,10.122-18.583,21.484l9.975,61.901c8.45,52.444,53.717,91,106.837,91h127.829
	c-34.543,0-41.025-47.488-31.774-63.253c52.655-89.731,45.187-258.348,45.187-305.727C269.418,88.355,317.463,62.068,331.45,62.068z
	"/>
<g style="opacity:0.1;">
	<circle cx="256" cy="205.13" r="7.08"/>
	<circle cx="289.538" cy="236.307" r="7.08"/>
	<circle cx="226.913" cy="358.925" r="7.08"/>
	<circle cx="118.227" cy="462.529" r="7.08"/>
	<circle cx="69.232" cy="427.729" r="7.08"/>
</g>
<path style="opacity:0.5;fill:#FFFFFF;enable-background:new    ;" d="M335.155,268.086L335.155,268.086
	c-18.426,0-33.925,13.814-36.036,32.119l-10.474,90.811c-2.354,20.408-19.633,35.808-40.176,35.808l0,0
	c-22.919,0-41.498,18.58-41.498,41.498l0,0c0,20.099,16.293,36.392,36.392,36.392h37.967c49.698,0,89.986-40.289,89.986-89.986
	V301.586C369.898,282.841,354.253,268.086,335.155,268.086z"/>
<path style="fill:#7DD49B;" d="M216.33,319.218c-0.726,0-1.456-0.025-2.192-0.077c-62.843-4.385-105.351-35.864-126.343-93.566
	c-5.861-16.108,2.446-33.917,18.554-39.778c16.112-5.861,33.919,2.448,39.78,18.556c15.73,43.233,45.39,50.983,72.33,52.862
	c17.1,1.193,29.995,16.022,28.802,33.124C246.119,306.704,232.488,319.218,216.33,319.218z"/>
<path style="opacity:0.15;enable-background:new    ;" d="M216.33,319.218c-0.726,0-1.456-0.025-2.192-0.077
	c-62.843-4.385-105.351-35.864-126.343-93.566c-5.861-16.108,2.446-33.917,18.554-39.778c16.112-5.861,33.919,2.448,39.78,18.556
	c15.73,43.233,45.39,50.983,72.33,52.862c17.1,1.193,29.995,16.022,28.802,33.124C246.119,306.704,232.488,319.218,216.33,319.218z"
	/>
<path style="fill:#7DD49B;" d="M291.831,459.134H281.83v-11.469c0-28.806-23.352-52.158-52.158-52.158l0,0
	c-28.806,0-52.158,23.352-52.158,52.158v17.511c0,21.836,17.702,39.539,39.538,39.539h101.282c5.269,0,9.539-4.271,9.539-9.539
	C327.872,475.269,311.736,459.134,291.831,459.134z"/>
<path style="opacity:0.15;enable-background:new    ;" d="M291.831,459.134H281.83v-11.469c0-28.806-23.352-52.158-52.158-52.158
	l0,0c-28.806,0-52.158,23.352-52.158,52.158v17.511c0,21.836,17.702,39.539,39.538,39.539h101.282c5.269,0,9.539-4.271,9.539-9.539
	C327.872,475.269,311.736,459.134,291.831,459.134z"/>
<path d="M492.111,197.912c4.493-8.56,7.05-18.289,7.05-28.609c0-25.116-15.001-47.536-38.217-57.119
	c-2.755-1.136-5.028-3.389-6.4-6.342c-14.404-31.019-45.79-51.062-79.961-51.062h-7.927L343.89,9.248
	C341.04,3.544,335.306,0,328.929,0s-12.11,3.544-14.961,9.247l-23.041,46.078c-4.315,0.478-8.537,1.267-12.643,2.347l-36.096-21.339
	c-5.487-3.245-12.227-3.113-17.585,0.346c-5.358,3.459-8.252,9.544-7.555,15.884l5.469,49.691
	c-4.608,8.822-7.765,18.514-9.155,28.761l-45.052,17.636c-5.938,2.325-9.985,7.714-10.562,14.065
	c-0.577,6.351,2.434,12.381,7.856,15.737l42.56,26.339c-0.516,3.254-1.077,6.499-1.683,9.737l-39.577,12.647
	c-5.339-6.439-10.062-14.688-13.928-25.31c-3.499-9.62-10.535-17.302-19.812-21.629c-9.275-4.329-19.684-4.784-29.306-1.283
	c-9.619,3.5-17.301,10.536-21.628,19.814c-4.327,9.277-4.783,19.684-1.282,29.303c10.945,30.083,27.764,53.681,49.988,70.14
	c12.867,9.529,27.639,16.706,44.145,21.514l-0.563,1.704l-44.069,9.044c-5.807,1.192-10.364,5.488-11.895,11.214
	s0.274,11.724,4.712,15.654l30.448,26.969l-4.976,15.041l-19.997-9.679c-4.923-2.384-10.675-1.791-15.007,1.548
	c-4.334,3.338-6.376,8.747-5.329,14.116l3.653,18.725c-11.836-5.34-21.774-14.548-28.009-26.546l-3.595-6.918l20.786-33.809
	c2.712-4.412,2.698-9.884-0.034-14.282c-2.733-4.397-7.63-6.841-12.789-6.357l-34.593,3.196l-1.021-1.964
	c-4.523-8.705-13.24-14.2-22.75-14.341c-0.127-0.002-0.255-0.003-0.382-0.003c-7.515,0-14.62,3.243-19.54,8.934
	c-5.004,5.789-7.178,13.443-5.96,20.998l9.976,61.901c4.361,27.072,18.26,51.773,39.135,69.554
	C74.157,502.208,100.756,512,128.177,512h190.155c0.347,0,0.686-0.031,1.027-0.052c0.654,0.028,1.313,0.052,1.974,0.052h101.282
	c9.278,0,16.825-7.548,16.825-16.825c0-23.891-19.437-43.328-43.328-43.328h-2.714v-4.182c0-14.555-5.235-28.367-14.797-39.228
	v-76.202c58.147-3.142,100.512-32.355,125.97-86.945C512.493,228.307,506.844,208.427,492.111,197.912z M327.001,15.764
	c0.493-0.984,1.319-1.191,1.927-1.191c0.608,0,1.436,0.207,1.928,1.192l19.508,39.016h-42.871L327.001,15.764z M232.509,48.922
	c0.51-0.33,1.316-0.604,2.265-0.045l26.098,15.429c-9.746,4.958-18.45,11.674-25.697,19.729l-3.639-33.067
	C231.415,49.875,231.998,49.251,232.509,48.922z M173.273,166.06c-0.936-0.579-1.067-1.421-1.011-2.027
	c0.055-0.605,0.335-1.411,1.359-1.811l38.95-15.246c0.062,14.083-0.696,28.102-2.267,42.001L173.273,166.06z M203.004,230.939
	c-1.268,5.364-2.648,10.703-4.167,16.01c-6.79-1.738-13.36-4.375-19.474-8.455L203.004,230.939z M132.929,346.43
	c-0.123-0.109-0.452-0.399-0.296-0.982c0.155-0.582,0.585-0.669,0.746-0.703l35.858-7.358l-10.543,31.865L132.929,346.43z
	 M144.119,413.304l-4.496,13.59c-0.468,1.42-1.79,2.373-3.286,2.373c-2.886,0-5.738-0.213-8.537-0.619l-5.007-25.669
	L144.119,413.304z M87.786,350.839l-15.17,24.674L61.079,353.31L87.786,350.839z M291.831,451.847h-2.714v-4.182
	c0-9.966-2.476-19.36-6.829-27.618c7.576-7.568,12.347-17.371,13.596-28.197l0.992-8.603h67.154v31.48
	c0,25.829-11.683,49.503-31.687,65.105C326.134,463.493,310.321,451.847,291.831,451.847z M364.029,324.347v44.328h-65.473
	l5.113-44.328H364.029z M305.35,309.774l1.007-8.733c1.688-14.632,14.068-25.668,28.798-25.668
	c14.999,0,27.638,11.648,28.874,26.555v7.846L305.35,309.774L305.35,309.774z M378.827,447.665v11.469
	c0,4.025,3.261,7.287,7.287,7.287h10.001c15.855,0,28.755,12.899,28.755,28.755c0,1.242-1.01,2.252-2.252,2.252H334.99
	c0.074-0.546,0.119-1.099,0.139-1.659c21.859-14.492,36.583-36.597,41.583-61.757C378.102,438.373,378.827,442.967,378.827,447.665z
	 M364.029,235.632v36.212c-7.732-6.87-17.878-11.044-28.874-11.044c-22.135,0-40.739,16.581-43.274,38.571l-1.953,16.935
	c0,0.005-0.001,0.01-0.002,0.016l-6.791,58.88c-0.001,0.009-0.002,0.017-0.003,0.024l-1.724,14.955
	c-0.765,6.626-3.431,12.699-7.655,17.648c-10.885-12.034-26.614-19.609-44.081-19.609c-9.831,0-19.576,2.452-28.181,7.093
	c-3.542,1.91-4.865,6.331-2.955,9.872c1.91,3.541,6.33,4.865,9.872,2.955c6.487-3.499,13.84-5.347,21.265-5.347
	c24.743,0,44.872,20.129,44.872,44.871v11.469c0,4.025,3.261,7.287,7.287,7.287h10.001c15.855,0,28.755,12.899,28.755,28.755
	c0,1.242-1.01,2.252-2.252,2.252H217.05c-17.784,0-32.251-14.468-32.251-32.251v-17.51c0-7.804,2.032-15.488,5.878-22.22
	c1.996-3.495,0.781-7.945-2.714-9.941c-3.495-1.995-7.944-0.78-9.941,2.714c-5.101,8.928-7.796,19.112-7.796,29.448v17.51
	c0,12.491,4.927,23.847,12.926,32.251h-54.975c-23.962,0-47.204-8.557-65.445-24.094c-18.242-15.537-30.386-37.122-34.198-60.779
	l-9.976-61.901c-0.53-3.293,0.417-6.627,2.598-9.15c2.143-2.479,5.24-3.892,8.517-3.892c0.055,0,0.111,0,0.167,0.001
	c4.14,0.062,7.984,2.547,10.031,6.489l3.295,6.341c0.015,0.028,0.029,0.057,0.044,0.086l27.904,53.703
	c12.695,24.432,37.687,39.611,65.222,39.611c7.794,0,14.674-4.971,17.121-12.37l15.576-47.078c0.007-0.021,0.015-0.044,0.021-0.065
	l20.226-61.137c7.788,1.549,15.907,2.63,24.359,3.22c0.902,0.061,1.805,0.093,2.689,0.093c19.154,0,35.476-14.322,37.966-33.317
	c0.523-3.989-2.287-7.649-6.278-8.172c-3.991-0.525-7.648,2.287-8.172,6.278c-1.543,11.765-11.652,20.637-23.516,20.637
	c-0.553,0-1.122-0.02-1.685-0.058c-29.867-2.085-55.113-10.622-75.036-25.376c-19.887-14.728-35.016-36.063-44.967-63.413
	c-2.168-5.961-1.886-12.41,0.795-18.16c2.682-5.749,7.442-10.11,13.404-12.279c5.961-2.167,12.412-1.886,18.162,0.795
	c5.749,2.682,10.109,7.443,12.278,13.405c7.765,21.344,19.242,36.295,35.086,45.712c15.018,8.926,31.181,11.063,43.584,11.928
	c5.516,0.385,10.557,2.581,14.58,6.355c2.935,2.753,7.546,2.604,10.3-0.33c2.752-2.935,2.606-7.546-0.33-10.299
	c-6.405-6.007-14.763-9.651-23.535-10.262c-1.901-0.133-3.802-0.299-5.698-0.499c2.596-9.222,4.831-18.531,6.703-27.912
	c0.003-0.017,0.007-0.033,0.01-0.049c5.074-25.458,7.481-51.439,7.154-77.614c-0.004-0.316-0.007-0.631-0.007-0.948
	c0-40.567,33.005-73.573,73.573-73.573h73.884c28.521,0,54.719,16.732,66.744,42.628c2.918,6.282,7.911,11.139,14.058,13.674
	c17.74,7.322,29.203,24.455,29.203,43.647c0,25.881-20.941,46.953-46.768,47.185c-0.032,0-0.063,0.002-0.095,0.003
	c-0.111,0.001-0.221,0.009-0.332,0.009h-54.233C372.612,216.499,364.029,225.082,364.029,235.632z M424.549,231.072
	c-8.612,11.439-22.03,21.903-45.947,24.297v-19.738c0-2.514,2.044-4.559,4.558-4.559H424.549z M491.366,239.131
	c-11.976,25.681-28.167,45.331-48.123,58.406c-18.138,11.884-39.861,18.618-64.64,20.095v-47.628
	c36.86-3.183,53.917-22.758,63.542-39.133c16.596-1.27,31.37-9.118,41.721-20.945C492.832,216.483,496.234,228.691,491.366,239.131z
	 M412.393,184.375c6.18,7.093,15.111,11.16,24.503,11.16s18.322-4.068,24.503-11.16c2.645-3.033,2.328-7.636-0.707-10.28
	c-3.033-2.645-7.637-2.328-10.28,0.706c-3.412,3.915-8.339,6.161-13.516,6.161s-10.104-2.246-13.516-6.161
	c-2.646-3.033-7.247-3.349-10.28-0.706C410.065,176.739,409.748,181.342,412.393,184.375z M404.268,119.598
	c4.024,0,7.287-3.261,7.287-7.287v-11.968c0-4.025-3.262-7.287-7.287-7.287c-4.025,0-7.286,3.261-7.286,7.287v11.968
	C396.981,116.336,400.243,119.598,404.268,119.598z M331.45,93.056c-4.025,0-7.287,3.261-7.287,7.287v11.968
	c0,4.025,3.261,7.287,7.287,7.287s7.287-3.261,7.287-7.287v-11.968C338.736,96.318,335.475,93.056,331.45,93.056z"/>
<g>
</g>
<g>
</g>
<g>
</g>
<g>
</g>
<g>
</g>
<g>
</g>
<g>
</g>
<g>
</g>
<g>
</g>
<g>
</g>
<g>
</g>
<g>
</g>
<g>
</g>
<g>
</g>
<g>
</g>
</svg>
